<?xml version="1.0" standalone="no"?>
<!DOCTYPE svg PUBLIC "-//W3C//DTD SVG 20010904//EN"
 "http://www.w3.org/TR/2001/REC-SVG-20010904/DTD/svg10.dtd">
<svg version="1.0" xmlns="http://www.w3.org/2000/svg"
 width="500.000000pt" height="342.000000pt" viewBox="0 0 500.000000 342.000000"
 preserveAspectRatio="xMidYMid meet">

<g transform="translate(0.000000,342.000000) scale(0.100000,-0.100000)"
fill="#000000" stroke="none">
<path d="M790 3396 c0 -29 9 -56 19 -56 4 0 27 -18 51 -40 46 -43 64 -49 74
-25 3 8 16 15 29 15 29 0 47 18 47 46 0 13 7 29 15 38 8 8 15 22 15 30 0 14
-18 16 -125 16 l-125 0 0 -24z"/>
<path d="M1220 3412 c0 -4 5 -13 12 -20 7 -7 8 -12 3 -12 -4 0 0 -9 10 -20 10
-11 26 -20 37 -20 10 0 18 -6 18 -12 0 -19 58 -108 70 -108 5 0 16 13 25 29 8
17 27 36 42 43 15 7 32 26 38 43 13 39 22 45 72 45 53 0 80 9 61 21 -7 5 -8 9
-2 9 5 0 20 -9 31 -19 12 -11 24 -17 27 -13 4 3 10 2 14 -4 16 -24 74 -56 93
-51 10 3 17 2 14 -3 -2 -4 26 -15 63 -24 37 -9 69 -21 70 -26 2 -6 39 -10 83
-10 64 0 79 -3 79 -15 0 -11 11 -15 40 -15 29 0 40 -4 40 -15 0 -17 36 -21 42
-4 5 16 87 22 104 8 19 -16 64 -21 64 -8 0 6 5 7 10 4 6 -3 10 -1 10 5 0 7 6
8 19 1 10 -6 22 -7 26 -3 5 4 5 1 1 -6 -5 -7 -14 -11 -22 -8 -8 3 -14 1 -14
-4 0 -6 5 -11 10 -11 22 -3 26 -5 50 -22 16 -11 19 -17 9 -17 -8 0 -20 5 -25
10 -6 6 -30 12 -55 14 -45 4 -32 -7 22 -18 25 -5 72 -39 65 -47 -2 -2 -6 -20
-9 -39 l-5 -35 57 -2 c31 -1 82 -9 115 -18 46 -13 61 -14 70 -4 8 9 7 10 -7 6
-9 -4 -42 3 -72 14 -30 11 -59 18 -64 15 -4 -3 -16 3 -26 14 -17 19 -17 20 -1
20 9 0 14 -4 11 -10 -8 -13 14 -13 53 1 26 9 35 8 48 -6 15 -15 14 -16 -12
-10 -27 5 -27 5 -7 -6 30 -16 53 -5 53 25 0 25 -15 44 -22 27 -1 -4 -25 -11
-53 -15 -36 -5 -46 -4 -35 4 11 7 4 9 -27 5 -41 -5 -56 5 -31 21 7 4 8 3 4 -4
-4 -7 -2 -12 3 -12 6 0 11 18 11 39 0 29 -5 41 -17 45 -10 3 33 3 95 1 l112
-5 0 40 c0 37 2 40 26 40 15 0 33 8 40 18 8 10 13 12 14 5 0 -16 240 -19 240
-3 0 6 18 10 40 10 38 0 40 2 40 30 0 28 2 30 40 30 22 0 40 5 40 10 0 6 33
10 80 10 53 0 80 4 80 11 0 8 17 10 50 7 45 -5 70 4 70 24 0 4 -508 8 -1130 8
-621 0 -1130 -4 -1130 -8z m280 -22 c0 -5 -5 -10 -11 -10 -5 0 -7 5 -4 10 3 6
8 10 11 10 2 0 4 -4 4 -10z"/>
<path d="M4560 3410 c0 -5 18 -10 40 -10 22 0 40 5 40 10 0 6 -18 10 -40 10
-22 0 -40 -4 -40 -10z"/>
<path d="M4694 3353 c4 -36 4 -126 0 -200 -7 -131 -7 -133 -30 -133 -21 0 -24
-5 -24 -40 l0 -40 -55 0 -55 0 0 -40 c0 -36 -2 -40 -25 -40 -25 0 -25 -1 -25
-85 l0 -85 -40 0 c-22 0 -40 -4 -40 -10 0 -5 -18 -10 -40 -10 -29 0 -40 4 -40
15 0 8 -7 15 -15 15 -11 0 -15 -11 -15 -40 0 -36 -2 -40 -25 -40 -16 0 -25 -6
-25 -15 0 -11 -11 -15 -40 -15 -29 0 -40 4 -40 15 0 11 -11 15 -40 15 -29 0
-40 4 -40 15 0 8 -5 15 -12 15 -6 0 -1 9 12 20 13 11 20 23 15 28 -4 4 -10 1
-12 -5 -3 -7 -17 -13 -33 -13 -16 0 -31 -6 -33 -12 -4 -8 -8 -4 -12 10 -9 27
-36 29 -55 2 -19 -27 -30 -25 -30 5 0 23 -4 25 -40 25 l-40 0 0 -45 0 -45 -71
0 c-67 0 -70 -1 -67 -22 4 -30 107 -83 175 -91 27 -3 71 -17 98 -31 41 -22 53
-25 84 -16 55 15 105 12 163 -10 47 -18 55 -18 97 -4 40 12 53 13 100 0 40
-10 62 -11 84 -4 37 13 158 4 214 -16 37 -14 46 -14 77 -1 40 17 149 24 184
12 l22 -8 0 495 0 496 -156 0 -157 0 7 -67z m33 -135 c-2 -24 -4 -5 -4 42 0
47 2 66 4 43 2 -24 2 -62 0 -85z m0 -180 c-2 -13 -4 -3 -4 22 0 25 2 35 4 23
2 -13 2 -33 0 -45z m-207 -278 c0 -11 -7 -20 -15 -20 -8 0 -15 9 -15 20 0 11
7 20 15 20 8 0 15 -9 15 -20z m-626 -154 c-12 -10 -21 -11 -25 -4 -4 6 -12 7
-19 3 -9 -5 -11 -4 -6 3 4 7 21 12 39 12 29 0 30 -1 11 -14z m-134 -13 c0 -8
-5 -13 -12 -11 -18 6 -21 25 -3 25 8 0 15 -7 15 -14z m135 -63 c8 -13 -5 -13
-25 0 -13 8 -13 10 2 10 9 0 20 -4 23 -10z m95 0 c13 -8 13 -10 -2 -10 -9 0
-20 5 -23 10 -8 13 5 13 25 0z m105 0 c-28 -12 -47 -12 -40 0 3 6 18 10 33 9
24 0 25 -1 7 -9z m120 -1 l20 0 -20 -9 c-29 -12 -47 -12 -39 1 4 8 -1 9 -16 4
-16 -5 -20 -4 -15 5 4 6 17 9 29 6 11 -3 30 -6 41 -7z m-275 -3 c0 -3 -4 -8
-10 -11 -5 -3 -10 -1 -10 4 0 6 5 11 10 11 6 0 10 -2 10 -4z m300 -26 c0 -5
-2 -10 -4 -10 -3 0 -8 5 -11 10 -3 6 -1 10 4 10 6 0 11 -4 11 -10z"/>
<path d="M2898 3253 c12 -2 32 -2 45 0 12 2 2 4 -23 4 -25 0 -35 -2 -22 -4z"/>
<path d="M845 3148 c-10 -17 -37 -51 -60 -75 -23 -23 -40 -45 -37 -48 3 -3 0
-5 -6 -5 -7 0 -12 6 -12 13 0 7 -3 8 -8 2 -13 -18 -117 -65 -142 -65 -14 1
-41 -3 -60 -7 -34 -9 -34 -10 -31 -53 1 -25 8 -48 15 -52 7 -4 18 -26 25 -50
7 -24 17 -51 22 -60 12 -23 11 -48 -1 -48 -14 0 -13 -33 1 -47 7 -7 13 -29 15
-50 2 -21 8 -53 13 -72 12 -40 2 -53 -59 -83 -27 -13 -169 -48 -196 -48 -2 0
-4 32 -4 70 l0 70 -30 0 c-16 0 -30 -5 -30 -10 0 -7 -25 -10 -62 -9 -35 0 -79
-4 -98 -10 -19 -6 -50 -11 -67 -11 l-33 0 0 -1250 0 -1250 608 0 607 0 20 36
c11 20 29 40 41 44 57 22 356 27 810 13 144 -4 256 -1 395 11 107 8 322 18
479 22 157 3 353 7 435 9 150 4 205 -4 205 -32 0 -6 3 -13 8 -15 4 -1 22 -22
40 -45 l34 -43 255 0 255 0 -6 26 c-11 42 -27 51 -107 59 -41 4 -90 15 -109
24 -26 14 -58 18 -122 18 -96 -1 -108 5 -138 62 -11 20 -37 56 -60 80 -61 68
-57 72 63 69 99 -3 102 -4 101 -25 0 -13 5 -23 13 -23 18 0 16 -7 -7 -30 -26
-26 -16 -48 26 -56 71 -13 84 16 29 65 -22 19 -35 39 -35 55 0 13 -6 26 -14
29 -16 6 -29 133 -16 158 13 22 1 59 -16 52 -8 -3 -14 -11 -14 -19 0 -9 -12
-13 -35 -12 -36 1 -36 1 -32 42 2 23 2 31 0 18 -2 -12 -9 -22 -14 -22 -5 0 -9
-10 -10 -22 0 -13 -3 -17 -6 -10 -2 6 -9 9 -15 6 -6 -4 -14 -1 -18 6 -5 8 -13
9 -21 4 -33 -21 -54 -3 -28 23 8 8 8 16 -1 30 -10 16 -11 16 -6 1 3 -10 1 -18
-4 -18 -5 0 -10 10 -12 22 -2 17 -17 26 -65 41 -37 12 -63 25 -63 33 0 8 -4
14 -9 14 -4 0 -19 10 -33 23 -19 17 -27 38 -32 80 -8 59 -13 64 -48 46 -52
-28 -98 23 -98 109 0 35 -4 52 -15 56 -8 3 -15 1 -15 -4 0 -18 -46 -11 -68 10
-28 27 -39 69 -21 81 9 6 -11 8 -56 7 l-70 -3 0 -35 c-1 -53 -25 -98 -59 -110
-34 -12 -126 -14 -126 -2 0 4 -25 23 -55 41 -62 38 -95 64 -95 77 0 11 77 17
150 12 8 -1 38 0 65 1 84 4 18 21 -104 27 -58 3 -110 6 -116 7 -5 1 -10 -8 -9
-20 1 -29 -17 -30 -34 -2 -11 18 -11 24 5 41 16 18 16 21 2 31 -9 7 -28 35
-42 62 -19 37 -26 44 -27 28 0 -13 -5 -23 -11 -23 -6 0 -8 7 -5 16 3 8 2 12
-4 9 -6 -3 -10 -13 -10 -21 0 -17 -19 -38 -38 -42 -6 -1 -12 2 -12 8 0 5 -6
10 -14 10 -12 0 -14 24 -13 140 1 77 5 140 9 140 5 0 8 9 8 19 0 11 6 22 13
25 6 3 2 3 -10 0 -13 -3 -23 -1 -23 4 0 5 9 12 20 15 11 3 20 10 20 16 0 6 -7
7 -17 4 -12 -5 -14 -3 -8 7 6 10 4 12 -8 7 -9 -3 -19 -2 -21 2 -3 4 13 14 36
20 42 13 57 6 58 -26 0 -7 5 -13 11 -13 6 0 8 7 5 16 -10 27 21 64 53 64 16 0
34 6 40 14 20 24 -11 37 -75 31 -101 -8 -149 34 -53 47 114 16 121 18 109 33
-22 27 -102 65 -139 66 l-36 2 40 6 c47 8 112 56 151 112 20 29 25 47 22 74
-2 19 0 35 4 35 15 0 8 26 -12 40 -11 8 -20 21 -20 28 0 12 -3 12 -15 2 -8 -7
-15 -19 -15 -27 0 -9 -6 -13 -15 -9 -8 3 -15 1 -15 -4 0 -6 -4 -10 -10 -10 -5
0 -7 7 -4 15 5 11 -1 15 -20 15 -14 0 -26 -6 -27 -12 0 -7 -4 -4 -9 7 -15 34
-12 121 5 135 8 7 15 18 15 26 0 21 17 26 56 15 30 -8 34 -8 23 5 -7 9 -8 14
-1 14 6 0 18 3 26 6 29 11 59 -77 61 -178 0 -49 -3 -88 -7 -88 -11 0 -10 -38
1 -44 5 -3 55 -11 112 -16 173 -18 189 -21 186 -32 -1 -7 9 -13 23 -14 35 -4
100 -32 100 -44 0 -6 9 -10 20 -10 11 0 20 -7 20 -15 0 -9 -6 -12 -17 -9 -17
5 -17 5 0 -6 9 -6 17 -18 17 -25 0 -8 5 -15 11 -15 6 0 3 -7 -5 -16 -9 -8 -16
-21 -16 -27 0 -8 3 -7 9 2 6 10 13 10 29 2 17 -9 57 -13 220 -24 7 0 11 -6 8
-14 -3 -7 1 -13 9 -13 7 0 19 17 26 37 6 21 18 44 26 51 20 21 12 34 -32 49
-46 16 -54 22 -59 49 -3 10 -7 26 -10 34 -8 18 54 87 101 113 17 9 52 17 77
17 25 0 46 4 46 9 0 14 -35 23 -64 15 -20 -5 -26 -2 -26 10 0 9 -4 16 -9 16
-15 0 -100 54 -101 63 0 5 -6 15 -14 23 -25 24 -37 106 -25 170 11 61 56 128
93 140 11 4 26 12 33 20 22 22 116 44 176 41 42 -2 57 0 57 10 0 7 -7 13 -16
13 -14 0 -16 9 -12 50 4 43 2 52 -19 72 -20 19 -26 20 -34 8 -16 -26 -49 24
-49 75 0 26 -6 47 -15 55 -10 9 -15 9 -15 1 0 -7 -29 -12 -82 -13 -71 -1 -77
-2 -38 -8 l45 -7 -42 -1 c-24 -1 -43 -6 -43 -12 0 -5 -18 -10 -40 -10 -29 0
-40 4 -40 15 0 13 -20 15 -120 15 l-120 0 0 -45 0 -45 -40 0 c-33 0 -40 3 -40
20 0 17 -7 20 -40 20 -36 0 -40 3 -40 25 0 20 -5 25 -25 25 -22 0 -25 4 -25
35 0 19 -5 35 -10 35 -11 0 -57 70 -53 82 1 3 -4 9 -13 12 -10 4 -13 2 -8 -6
5 -7 2 -9 -9 -5 -12 4 -14 2 -10 -10 4 -11 2 -14 -5 -9 -7 4 -12 2 -12 -3 0
-15 23 -14 38 1 9 9 12 8 12 -5 0 -9 -5 -17 -11 -17 -5 0 -7 -5 -3 -11 5 -8 9
-8 14 1 11 19 43 -38 36 -66 -5 -18 -3 -22 9 -18 8 4 15 1 15 -5 0 -6 -4 -11
-10 -11 -5 0 -10 -9 -10 -21 0 -11 -4 -18 -9 -14 -6 3 -20 -27 -31 -67 -12
-39 -29 -82 -37 -94 -8 -13 -11 -29 -7 -35 4 -7 3 -9 -3 -6 -11 7 -46 -60 -38
-73 3 -4 1 -10 -3 -12 -5 -1 -12 -18 -15 -35 -5 -26 -3 -33 9 -33 14 0 14 -2
1 -15 -11 -10 -14 -27 -10 -53 5 -36 3 -40 -21 -44 -15 -3 -28 -2 -31 2 -4 7
-158 21 -214 20 -19 0 -22 4 -18 21 5 19 4 20 -12 5 -10 -9 -26 -16 -36 -16
-15 0 -16 2 -4 18 11 13 9 13 -9 -2 -23 -20 -31 -20 -155 -12 -51 4 -77 16
-36 16 13 0 33 7 43 15 24 18 71 21 60 4 -4 -7 -1 -10 7 -7 8 3 15 12 17 21 3
14 -5 17 -40 18 -73 3 -109 7 -116 14 -10 10 20 25 51 25 30 0 61 22 49 35 -4
5 1 5 11 2 10 -4 21 -7 23 -7 3 0 2 -5 -2 -12 -5 -7 -3 -8 6 -3 7 4 16 2 21
-6 4 -7 11 -10 14 -7 4 4 -3 17 -14 29 -12 13 -26 41 -32 64 -5 22 -14 49 -19
60 -17 41 -30 89 -30 116 0 15 -4 30 -9 34 -6 3 -8 -8 -5 -27 6 -41 -9 -69
-28 -50 -9 9 -9 12 5 12 9 0 17 7 17 15 0 9 -9 15 -21 15 -19 0 -21 -4 -15
-30 3 -17 1 -30 -4 -30 -9 0 -14 22 -11 43 0 4 -4 7 -9 7 -14 0 -4 -36 36
-132 38 -90 41 -103 18 -112 -25 -10 -34 -7 -28 9 4 8 2 15 -3 15 -6 0 -15 19
-22 43 -7 23 -23 59 -37 79 -13 21 -24 41 -24 46 0 5 -11 22 -24 37 -21 24
-24 39 -24 94 0 89 -2 93 -17 41 -7 -25 -14 -36 -14 -25 -1 11 -8 31 -16 45
-14 25 -14 25 -12 -11 1 -21 5 -35 10 -32 4 2 7 -6 7 -17 0 -16 -4 -20 -16
-16 -9 3 -37 6 -62 6 -39 0 -53 6 -81 32 -36 34 -131 67 -216 75 -38 4 -55 11
-72 31 -12 15 -22 33 -23 40 0 6 -7 12 -15 12 -9 0 -15 9 -15 25 0 14 -7 28
-15 31 -9 4 -14 14 -13 23 2 10 -3 15 -12 13 -8 -2 -54 -5 -101 -6 -66 -1 -90
-5 -103 -19 -12 -12 -25 -15 -44 -10 -15 3 -33 6 -42 6 -8 0 -28 12 -45 27
-37 33 -84 50 -141 50 -24 0 -44 5 -44 10 0 20 -16 9 -35 -22z m1115 -333 c-7
-9 -15 -13 -17 -11 -7 7 7 26 19 26 6 0 6 -6 -2 -15z m819 -70 c-19 -58 -19
-59 -13 -15 3 25 11 53 16 63 18 35 17 11 -3 -48z m-815 31 c-3 -8 3 -23 14
-34 25 -25 16 -39 -10 -15 -19 17 -25 63 -8 63 5 0 7 -6 4 -14z m-37 -48 c-3
-8 -6 -5 -6 6 -1 11 2 17 5 13 3 -3 4 -12 1 -19z m870 0 c-3 -8 -6 -5 -6 6 -1
11 2 17 5 13 3 -3 4 -12 1 -19z m-632 -38 c-3 -5 -10 -10 -16 -10 -5 0 -9 5
-9 10 0 6 7 10 16 10 8 0 12 -4 9 -10z m-140 -40 c1 -17 -1 -28 -4 -24 -3 3
-6 19 -7 35 -1 17 1 28 4 25 3 -3 6 -19 7 -36z m772 18 c-3 -8 -6 -5 -6 6 -1
11 2 17 5 13 3 -3 4 -12 1 -19z m-617 -18 c0 -5 -4 -10 -10 -10 -5 0 -10 5
-10 10 0 6 5 10 10 10 6 0 10 -4 10 -10z m580 0 c0 -5 -7 -10 -16 -10 -8 0
-12 5 -9 10 3 6 10 10 16 10 5 0 9 -4 9 -10z m-560 -50 c0 -5 -4 -10 -10 -10
-5 0 -10 5 -10 10 0 6 5 10 10 10 6 0 10 -4 10 -10z m502 -22 c-3 -12 -1 -19
4 -15 5 3 10 -3 10 -14 0 -10 -4 -19 -8 -19 -11 0 -21 47 -13 59 10 17 14 13
7 -11z m-492 -18 c0 -5 -4 -10 -10 -10 -5 0 -10 5 -10 10 0 6 5 10 10 10 6 0
10 -4 10 -10z m-57 -124 c-2 -3 -5 -6 -8 -6 -3 0 -17 0 -31 0 -14 0 -23 4 -19
9 6 11 62 8 58 -3z m-1159 -61 c43 -40 36 -84 -22 -145 -26 -27 -53 -50 -59
-50 -21 0 -40 34 -42 78 -1 6 -8 12 -16 12 -9 0 -15 9 -15 23 0 12 -7 33 -16
45 -14 20 -14 22 3 22 10 0 41 9 68 19 66 25 68 25 99 -4z m1483 -97 c-3 -8
-6 -5 -6 6 -1 11 2 17 5 13 3 -3 4 -12 1 -19z m-1787 -3 c7 -9 19 -14 27 -11
8 3 11 1 8 -4 -3 -6 -1 -10 4 -10 6 0 11 -6 11 -14 0 -8 5 -18 11 -22 8 -4 9
3 4 24 -5 27 -4 31 14 29 16 -1 19 -7 15 -32 -4 -27 -3 -28 5 -7 11 25 27 31
17 7 -3 -9 1 -18 9 -21 8 -3 13 -14 12 -25 -4 -25 -17 -37 -17 -16 0 20 -11
22 -28 5 -9 -9 -12 -9 -12 1 0 7 -5 9 -11 6 -6 -4 -8 -13 -5 -21 7 -19 -20
-70 -28 -52 -3 7 -5 4 -2 -8 3 -21 -7 -44 -58 -125 -21 -33 -45 -54 -82 -73
-28 -15 -57 -33 -64 -41 -16 -20 -102 -20 -140 0 -42 22 -80 82 -80 127 0 54
16 82 68 114 26 16 68 44 95 62 27 17 53 32 58 32 26 0 98 44 107 65 13 28 43
33 62 10z m1767 -27 c-3 -8 -6 -5 -6 6 -1 11 2 17 5 13 3 -3 4 -12 1 -19z
m-1607 -2 c0 -11 -19 -15 -25 -6 -3 5 1 10 9 10 9 0 16 -2 16 -4z m1610 -62
c0 -20 -11 -44 -21 -44 -5 0 -9 9 -9 21 0 13 4 18 12 13 8 -5 9 -2 5 9 -19 46
-19 53 -3 33 9 -11 16 -25 16 -32z m-354 -190 c17 -33 43 -64 75 -88 27 -20
49 -40 49 -45 0 -5 -28 -31 -62 -58 -56 -44 -63 -53 -63 -85 0 -46 20 -68 60
-68 30 0 33 -3 39 -37 9 -60 7 -135 -4 -128 -5 3 -10 29 -10 57 0 28 -3 48 -7
45 -3 -4 -12 -2 -19 4 -10 8 -11 16 -4 30 8 14 7 17 -2 14 -18 -7 -68 41 -68
65 0 21 -28 40 -59 40 -12 0 -29 8 -39 18 -10 9 -31 26 -46 37 -16 11 -41 30
-56 43 -15 12 -31 22 -34 22 -19 0 -49 44 -57 82 -14 74 23 142 89 166 59 21
112 30 112 18 0 -6 5 -4 10 4 8 13 10 12 11 -5 1 -14 4 -10 9 10 6 25 8 26 9
7 1 -29 21 -19 22 11 1 12 6 -7 11 -43 5 -36 20 -88 34 -116z m497 131 c4 -8
2 -17 -3 -20 -6 -4 -10 3 -10 14 0 25 6 27 13 6z m-23 -44 c0 -5 -7 -11 -15
-15 -9 -3 -15 0 -15 9 0 8 7 15 15 15 8 0 15 -4 15 -9z m-1652 -182 c2 -19 -6
-34 -32 -57 -20 -17 -36 -35 -36 -40 0 -4 -5 -13 -11 -19 -9 -9 -21 -7 -50 7
-54 28 -61 45 -15 36 42 -8 44 -4 16 32 -25 31 -17 42 43 58 62 17 81 13 85
-17z m-78 -164 c0 -8 -3 -15 -6 -15 -3 0 -12 7 -20 15 -14 13 -13 15 5 15 12
0 21 -6 21 -15z m-67 -9 c10 -26 -75 -36 -105 -12 -25 19 -12 26 48 26 35 0
54 -4 57 -14z m95 -77 c0 -20 3 -42 6 -47 3 -6 -1 -32 -10 -58 -12 -36 -13
-53 -5 -70 17 -38 4 -54 -41 -54 -27 0 -45 -6 -54 -17 -21 -30 -26 -8 -25 109
2 123 8 138 61 138 29 0 58 28 52 50 -3 13 -2 13 7 0 5 -8 9 -31 9 -51z m-194
-11 c13 -24 12 -27 -8 -32 -11 -3 -31 -6 -42 -6 -32 0 -51 -27 -36 -51 17 -26
15 -59 -3 -59 -8 0 -15 -8 -15 -17 0 -9 -3 -14 -6 -10 -3 3 -17 -5 -31 -17
-22 -20 -23 -26 -13 -46 7 -12 13 -50 15 -84 3 -75 15 -127 26 -121 4 3 6 -9
4 -27 -6 -62 -18 -100 -31 -105 -15 -5 -20 -82 -6 -84 49 -4 77 -11 83 -21 11
-18 2 -26 -39 -38 -28 -7 -40 -17 -49 -40 -11 -30 -11 -30 37 -51 51 -22 65
-45 50 -83 -15 -40 -54 -51 -175 -51 l-112 1 -31 34 c-30 33 -31 39 -32 116 0
44 4 84 8 90 5 5 17 40 27 78 17 64 51 140 94 211 16 27 16 31 2 42 -18 13
-22 64 -6 75 6 5 2 8 -7 8 -11 0 -20 11 -24 28 -3 15 -7 32 -9 39 -2 7 4 15
14 18 11 3 22 13 25 23 26 69 80 122 126 122 24 0 36 18 21 33 -6 6 -11 14
-11 19 0 16 57 37 98 35 35 -2 45 -8 56 -29z m-5 -203 c0 -5 -4 -3 -9 5 -5 8
-9 22 -9 30 0 16 17 -16 18 -35z m1518 -67 c-6 -99 -19 -139 -67 -203 -16 -22
-32 -55 -34 -74 -4 -37 -24 -57 -96 -93 -25 -13 -48 -27 -52 -32 -8 -12 -102
-8 -106 4 -2 6 -12 10 -23 10 -10 0 -19 4 -19 9 0 5 -9 11 -20 14 -11 3 -20
12 -20 20 0 21 93 37 213 37 84 0 98 2 93 15 -3 8 -1 15 3 15 5 0 11 -6 14
-12 3 -7 5 -4 4 7 -1 15 -9 21 -33 22 -18 2 -35 -1 -38 -6 -14 -22 -370 12
-399 38 -13 12 31 44 60 44 15 0 37 5 48 12 11 7 72 20 135 29 63 10 133 22
155 27 22 5 61 8 88 6 39 -4 44 -2 31 8 -15 11 -15 12 5 18 12 3 25 5 29 6 12
0 20 42 21 109 1 34 4 62 7 62 4 0 4 -42 1 -92z m200 70 c-3 -8 -6 -5 -6 6 -1
11 2 17 5 13 3 -3 4 -12 1 -19z m-1477 -34 c0 -14 -25 -26 -34 -17 -3 4 -6 17
-6 30 0 21 2 22 20 11 11 -7 20 -18 20 -24z m1497 14 c-3 -8 -6 -5 -6 6 -1 11
2 17 5 13 3 -3 4 -12 1 -19z m-1751 -34 c-3 -9 -6 -22 -6 -30 0 -8 -4 -14 -8
-14 -5 0 -7 14 -4 30 2 17 9 30 14 30 6 0 7 -7 4 -16z m31 2 c-3 -7 -1 -18 5
-24 7 -7 5 -20 -6 -43 -15 -30 -15 -34 0 -51 22 -23 13 -23 -14 1 -22 19 -30
61 -12 61 6 0 10 16 10 35 0 19 5 35 11 35 6 0 9 -6 6 -14z m219 -40 c11 -44
1 -61 -35 -64 -49 -5 -76 4 -88 30 -17 38 -15 43 24 49 79 13 92 11 99 -15z
m1491 2 c-3 -8 -6 -5 -6 6 -1 11 2 17 5 13 3 -3 4 -12 1 -19z m-1317 -109 c4
-8 15 -37 24 -66 23 -71 12 -111 -28 -104 -5 1 -22 -3 -37 -10 -25 -10 -27
-13 -13 -27 14 -13 13 -57 -2 -71 -7 -7 -92 30 -106 46 -11 15 -10 16 10 11
47 -13 71 48 28 71 -25 14 -49 54 -39 65 4 3 23 6 44 6 40 0 89 17 89 32 0 4
-6 17 -12 28 -11 17 -10 22 2 30 18 12 31 8 40 -11z m-275 1 c13 5 26 6 29 3
13 -13 5 -43 -15 -53 -25 -14 -45 0 -52 36 -3 17 -1 22 6 15 6 -6 18 -6 32 -1z
m552 -109 c15 -20 16 -31 2 -31 -5 0 -7 5 -4 10 4 6 -11 10 -37 10 -40 0 -68
13 -68 31 0 13 95 -4 107 -20z m-527 -1 c0 -5 -7 -10 -16 -10 -8 0 -12 5 -9
10 3 6 10 10 16 10 5 0 9 -4 9 -10z m1740 -19 c5 -11 10 -22 10 -24 0 -12 -73
-37 -107 -36 -21 0 -32 3 -25 6 18 7 15 24 -5 21 -30 -5 -26 27 4 39 48 19
111 16 123 -6z m-1830 -1 c17 -11 15 -12 -47 -14 -40 -2 -44 11 -5 17 15 2 29
5 32 5 3 1 12 -3 20 -8z m50 0 c0 -5 -8 -10 -17 -10 -15 0 -16 2 -3 10 19 12
20 12 20 0z m495 -151 c28 -28 25 -93 -6 -125 -40 -39 -81 -39 -149 -2 -32 18
-64 43 -70 56 -9 21 -7 25 22 38 18 8 47 23 64 33 56 34 103 34 139 0z m1458
-8 c6 -6 19 -11 30 -11 12 0 16 -4 11 -12 -6 -10 -4 -10 7 0 23 21 38 13 48
-25 6 -20 8 -39 6 -43 -2 -3 41 -7 95 -7 113 -2 142 -13 189 -72 27 -34 30
-44 21 -61 -11 -20 -19 -21 -162 -19 -124 1 -153 -2 -166 -15 -14 -14 -14 -16
4 -22 32 -12 54 -36 54 -61 0 -12 -4 -23 -10 -23 -5 0 -10 5 -10 11 0 5 -4 8
-9 4 -15 -8 -40 23 -34 43 5 20 -11 38 -42 44 -11 2 -19 10 -17 16 3 17 -27
15 -34 -1 -3 -8 -22 -14 -47 -15 -23 0 -36 2 -29 5 6 2 12 11 12 19 0 9 11 14
29 14 102 0 144 20 153 75 2 16 -2 19 -24 17 -17 -2 -30 3 -37 15 -10 16 -12
17 -23 2 -7 -9 -19 -14 -25 -12 -7 3 -13 -2 -13 -10 0 -10 -15 -14 -60 -15
-33 0 -62 4 -66 9 -3 5 -10 6 -16 3 -5 -4 -20 -1 -31 5 -12 6 -35 15 -51 21
-25 9 -27 13 -15 25 8 7 39 16 69 20 30 4 75 10 99 15 25 4 50 6 58 3 16 -6
45 16 37 28 -2 5 -27 11 -54 15 -27 4 -54 12 -60 19 -8 10 1 12 46 10 31 -2
61 -8 67 -14z m-1716 -77 c-9 -9 -28 6 -21 18 4 6 10 6 17 -1 6 -6 8 -13 4
-17z m-82 -6 c4 4 1 -3 -6 -15 -8 -13 -20 -23 -27 -23 -7 0 -10 -5 -6 -12 5
-7 3 -8 -7 -2 -7 4 -28 7 -45 5 -40 -3 -114 26 -95 38 7 5 40 9 74 10 33 1 63
3 65 6 3 2 12 0 22 -5 10 -5 21 -6 25 -2z m933 -49 c1 -13 10 -41 19 -62 17
-38 17 -39 -8 -58 -22 -17 -41 -19 -261 -16 -204 2 -240 4 -254 18 -32 32 10
115 64 127 17 4 393 18 422 16 8 0 16 -12 18 -25z m-808 -56 c0 -22 -17 -50
-25 -42 -5 6 14 59 22 59 1 0 3 -8 3 -17z m-276 -59 c25 -10 19 -43 -10 -54
-63 -24 -134 -1 -96 32 29 26 73 35 106 22z m1749 -8 c8 -21 -2 -26 -47 -26
-37 0 -38 1 -21 14 11 8 23 12 27 10 5 -3 8 0 8 5 0 16 27 13 33 -3z m838 -24
c6 -17 5 -24 -7 -29 -21 -8 -46 19 -38 41 9 23 35 16 45 -12z m-2173 -8 c26
-5 28 -25 9 -99 l-13 -50 -53 -3 -54 -3 6 41 c3 26 0 55 -9 76 -8 19 -12 39
-9 44 5 9 65 6 123 -6z m1540 -43 c6 -1 12 -10 12 -21 0 -12 7 -20 16 -20 13
0 10 -6 -10 -25 -31 -29 -38 -31 -30 -10 4 10 0 15 -15 15 -24 0 -25 -3 -9
-33 10 -20 10 -21 -6 -8 -9 8 -19 11 -22 8 -4 -3 -14 1 -22 10 -11 11 -17 12
-20 4 -5 -15 -32 5 -32 25 0 7 -5 16 -12 20 -8 5 -9 -3 -5 -29 3 -21 3 -37 -1
-37 -15 0 -30 16 -37 39 -5 16 -10 20 -15 11 -5 -8 -9 -7 -14 6 -6 17 7 33 29
34 6 1 37 3 69 6 33 2 61 5 63 7 1 2 13 3 25 1 13 -1 29 -3 36 -3z m52 -12 c0
-4 -7 -6 -15 -3 -8 4 -15 10 -15 15 0 4 7 6 15 3 8 -4 15 -10 15 -15z m-296
-24 c-4 -8 -8 -15 -10 -15 -2 0 -4 7 -4 15 0 8 4 15 10 15 5 0 7 -7 4 -15z
m1060 -5 c18 -18 -8 -30 -64 -30 -57 0 -90 15 -90 41 0 12 140 1 154 -11z
m-3138 -2 c4 -6 8 -26 10 -45 3 -30 1 -33 -12 -22 -8 7 -13 18 -10 25 7 18
-14 30 -24 14 -5 -8 -8 -4 -7 12 2 25 31 36 43 16z m352 -50 c9 -9 12 -9 12 0
0 21 49 -20 50 -41 0 -19 -42 -91 -61 -103 -7 -4 -39 -7 -72 -7 -63 0 -157 36
-157 59 0 7 -8 17 -17 23 -17 9 -17 11 2 30 11 11 38 27 60 35 49 18 166 21
183 4z m2515 6 c10 -3 25 -22 34 -41 9 -19 31 -50 48 -69 18 -19 30 -34 27
-34 -2 0 1 -6 7 -14 10 -12 3 -15 -41 -20 -74 -9 -86 -9 -826 -7 -365 0 -668
-1 -672 -4 -4 -3 -93 -7 -197 -10 -307 -8 -393 -8 -400 -1 -4 4 1 29 11 56 10
28 16 56 13 64 -3 8 0 22 8 32 16 23 88 30 329 33 98 1 183 4 190 7 7 3 18
-12 26 -33 8 -21 16 -41 18 -45 2 -5 -10 -8 -27 -8 -16 0 -33 -5 -37 -12 -5
-7 0 -9 14 -6 14 4 19 2 16 -7 -3 -7 4 -15 16 -18 32 -8 606 -7 690 2 57 6 16
8 -164 10 -132 0 -237 3 -235 5 2 2 114 6 249 10 391 10 470 23 494 81 l14 34
190 1 c104 0 196 -2 205 -6z m-633 -24 c0 -5 -4 -10 -10 -10 -5 0 -10 5 -10
10 0 6 5 10 10 10 6 0 10 -4 10 -10z m-1516 -225 c3 -8 -4 -40 -14 -72 -11
-32 -20 -70 -20 -84 0 -32 -15 -39 -81 -39 -54 0 -103 20 -113 45 -15 40 -6
88 25 126 l31 39 83 0 c64 0 84 -3 89 -15z m-440 -18 c30 -9 41 -19 47 -40 8
-30 9 -28 -63 -82 -63 -47 -92 -57 -165 -56 -47 1 -70 6 -96 24 -63 42 -24
129 71 157 40 12 161 10 206 -3z"/>
<path d="M715 2220 c3 -5 8 -10 11 -10 2 0 4 5 4 10 0 6 -5 10 -11 10 -5 0 -7
-4 -4 -10z"/>
<path d="M2086 1737 c3 -10 9 -15 12 -12 3 3 0 11 -7 18 -10 9 -11 8 -5 -6z"/>
<path d="M2168 1603 c7 -3 16 -2 19 1 4 3 -2 6 -13 5 -11 0 -14 -3 -6 -6z"/>
<path d="M2100 1240 c0 -5 5 -10 10 -10 6 0 10 5 10 10 0 6 -4 10 -10 10 -5 0
-10 -4 -10 -10z"/>
<path d="M2496 1092 c-3 -6 -1 -14 5 -17 15 -10 25 3 12 16 -7 7 -13 7 -17 1z"/>
<path d="M2668 413 c12 -2 32 -2 45 0 12 2 2 4 -23 4 -25 0 -35 -2 -22 -4z"/>
<path d="M2255 3170 c4 -6 11 -8 16 -5 14 9 11 15 -7 15 -8 0 -12 -5 -9 -10z"/>
<path d="M2290 3146 c0 -28 -15 -42 -26 -25 -8 14 -34 -16 -30 -34 2 -7 1 -9
-1 -4 -3 4 -21 6 -41 6 l-37 -1 30 -8 c29 -7 29 -8 5 -10 -14 -1 -29 -1 -35 0
-5 1 -7 -2 -2 -6 4 -4 -3 -19 -15 -32 -21 -23 -22 -25 -3 -18 23 9 70 15 137
19 42 2 48 5 48 24 0 12 -5 25 -11 28 -6 4 -8 22 -4 46 4 25 3 39 -4 39 -6 0
-11 -11 -11 -24z m-26 -61 c3 -8 1 -15 -4 -15 -6 0 -10 7 -10 15 0 8 2 15 4
15 2 0 6 -7 10 -15z m-67 -41 c-3 -3 -12 -4 -19 -1 -8 3 -5 6 6 6 11 1 17 -2
13 -5z"/>
<path d="M2323 3156 c0 -8 6 -12 14 -9 7 3 10 9 7 14 -8 14 -21 11 -21 -5z"/>
<path d="M2369 3112 c0 -4 -3 -18 -5 -31 l-4 -25 25 24 c14 13 25 24 25 26 0
5 -40 11 -41 6z"/>
<path d="M2800 3085 c0 -20 17 -28 23 -11 3 8 -1 17 -9 20 -8 3 -14 -1 -14 -9z"/>
<path d="M2843 3046 c14 -11 15 -15 5 -19 -7 -3 -1 -6 15 -6 44 -1 29 30 -18
36 -19 3 -19 2 -2 -11z"/>
<path d="M2030 3009 c0 -5 5 -7 10 -4 6 3 10 8 10 11 0 2 -4 4 -10 4 -5 0 -10
-5 -10 -11z"/>
<path d="M2340 2994 c0 -9 -8 -23 -17 -30 -11 -8 -13 -13 -5 -14 6 0 12 -4 12
-10 0 -5 -15 -10 -34 -10 -19 0 -38 -5 -42 -11 -4 -7 -1 -10 7 -7 9 3 18 -7
24 -25 6 -17 16 -32 23 -35 8 -2 10 2 5 14 -3 9 -2 15 3 12 5 -3 16 10 25 28
11 22 13 34 5 34 -6 0 -4 5 4 10 10 6 17 5 22 -4 7 -13 -7 -301 -17 -348 -8
-34 11 -45 37 -21 20 18 21 18 13 -7 -9 -34 -42 -60 -74 -60 -16 0 -21 -3 -14
-8 7 -4 30 -6 52 -4 38 4 40 6 47 45 5 23 8 95 9 160 0 96 -2 114 -12 100 -11
-15 -13 -13 -13 16 0 25 4 32 15 27 11 -4 15 2 15 22 -1 25 -1 26 -12 7 -12
-19 -12 -19 -19 5 -4 14 -7 46 -8 71 -1 33 -6 49 -17 53 -25 10 -34 7 -34 -10z
m-20 -89 c0 -8 -4 -15 -10 -15 -5 0 -10 7 -10 15 0 8 5 15 10 15 6 0 10 -7 10
-15z m90 -147 c0 -19 -2 -20 -10 -8 -13 19 -13 30 0 30 6 0 10 -10 10 -22z
m-1 -80 c-1 -40 -1 -41 -9 -15 -8 26 -4 57 6 57 2 0 4 -19 3 -42z"/>
<path d="M2523 2993 c-10 -3 -8 -9 4 -21 12 -12 18 -13 21 -4 2 6 7 12 12 12
13 0 70 -54 70 -67 0 -6 5 -15 10 -18 20 -12 9 25 -14 50 -14 15 -26 30 -28
34 -4 10 -59 20 -75 14z"/>
<path d="M2035 2980 c-3 -5 -1 -10 4 -10 6 0 11 5 11 10 0 6 -2 10 -4 10 -3 0
-8 -4 -11 -10z"/>
<path d="M2085 2967 c-22 -12 -42 -25 -45 -28 -3 -3 -13 -5 -23 -3 -14 2 -17
-2 -12 -14 10 -22 10 -32 1 -61 -6 -17 -5 -22 5 -19 8 3 14 10 14 16 0 17 25
39 26 24 3 -26 4 -31 10 -36 4 -4 9 15 12 41 4 37 12 54 36 75 37 33 30 35
-24 5z"/>
<path d="M2650 2961 c0 -6 4 -12 8 -15 5 -3 9 1 9 9 0 8 -4 15 -9 15 -4 0 -8
-4 -8 -9z"/>
<path d="M2441 2934 c0 -11 3 -14 6 -6 3 7 2 16 -1 19 -3 4 -6 -2 -5 -13z"/>
<path d="M3138 2943 c12 -2 32 -2 45 0 12 2 2 4 -23 4 -25 0 -35 -2 -22 -4z"/>
<path d="M2544 2925 c11 -8 22 -12 25 -9 6 6 -19 24 -34 24 -5 -1 -1 -7 9 -15z"/>
<path d="M2767 2919 c6 -22 23 -26 23 -5 0 8 -6 16 -14 19 -10 4 -12 0 -9 -14z"/>
<path d="M2580 2920 c0 -5 5 -10 11 -10 5 0 7 5 4 10 -3 6 -8 10 -11 10 -2 0
-4 -4 -4 -10z"/>
<path d="M2696 2911 c-3 -5 1 -14 8 -20 12 -10 13 -8 9 8 -6 23 -9 25 -17 12z"/>
<path d="M2666 2888 c-9 -34 -8 -38 10 -38 10 0 12 4 7 13 -4 6 -6 20 -5 30 5
25 -5 21 -12 -5z"/>
<path d="M2098 2870 c3 -21 10 -30 23 -30 11 0 19 7 19 16 0 11 -5 14 -16 10
-9 -4 -14 -1 -12 6 2 6 12 12 22 14 33 5 30 14 -6 14 -33 0 -34 -2 -30 -30z"/>
<path d="M2465 2880 c-3 -5 -1 -10 4 -10 6 0 11 5 11 10 0 6 -2 10 -4 10 -3 0
-8 -4 -11 -10z"/>
<path d="M2548 2848 c0 -13 -2 -34 -4 -48 -1 -14 -4 -59 -6 -102 -1 -42 -6
-74 -10 -71 -5 2 -8 -4 -8 -14 0 -11 -5 -24 -12 -31 -9 -9 -9 -12 0 -12 28 0
66 155 60 249 -2 46 -17 67 -20 29z"/>
<path d="M2460 2840 c0 -5 5 -10 10 -10 6 0 10 5 10 10 0 6 -4 10 -10 10 -5 0
-10 -4 -10 -10z"/>
<path d="M2501 2781 c-7 -32 -10 -68 -6 -80 10 -33 -15 -82 -39 -75 -12 4 -16
2 -12 -5 4 -6 14 -11 22 -11 15 0 19 -12 7 -23 -3 -4 -12 -2 -20 4 -8 7 -13 8
-13 1 0 -5 7 -13 16 -16 8 -3 14 -14 13 -23 0 -10 -1 -29 0 -43 2 -39 21 -3
21 40 0 19 4 51 9 70 10 35 25 220 18 220 -1 0 -9 -27 -16 -59z"/>
<path d="M2090 2818 c0 -10 5 -18 11 -18 5 0 8 -4 5 -9 -4 -5 3 -7 14 -4 11 3
20 11 20 19 0 8 -6 11 -16 7 -9 -3 -20 0 -25 8 -7 11 -9 11 -9 -3z"/>
<path d="M2721 2814 c0 -11 3 -14 6 -6 3 7 2 16 -1 19 -3 4 -6 -2 -5 -13z"/>
<path d="M2000 2816 c0 -2 6 -9 13 -15 10 -8 14 -7 14 4 0 8 -6 15 -14 15 -7
0 -13 -2 -13 -4z"/>
<path d="M2211 2794 c0 -11 3 -14 6 -6 3 7 2 16 -1 19 -3 4 -6 -2 -5 -13z"/>
<path d="M2450 2800 c-13 -8 -12 -10 3 -10 9 0 17 5 17 10 0 12 -1 12 -20 0z"/>
<path d="M2715 2779 c-4 -6 -5 -12 -2 -15 2 -3 7 2 10 11 7 17 1 20 -8 4z"/>
<path d="M2211 2744 c0 -11 3 -14 6 -6 3 7 2 16 -1 19 -3 4 -6 -2 -5 -13z"/>
<path d="M2450 2750 c0 -5 5 -10 10 -10 6 0 10 5 10 10 0 6 -4 10 -10 10 -5 0
-10 -4 -10 -10z"/>
<path d="M4380 2715 c-10 -12 -10 -15 4 -15 9 0 16 7 16 15 0 8 -2 15 -4 15
-2 0 -9 -7 -16 -15z"/>
<path d="M2221 2704 c0 -11 3 -14 6 -6 3 7 2 16 -1 19 -3 4 -6 -2 -5 -13z"/>
<path d="M2455 2710 c-3 -5 -1 -10 4 -10 6 0 11 5 11 10 0 6 -2 10 -4 10 -3 0
-8 -4 -11 -10z"/>
<path d="M2697 2701 c-4 -17 -3 -21 5 -13 5 5 8 16 6 23 -3 8 -7 3 -11 -10z"/>
<path d="M4163 2660 c2 -36 4 -40 30 -40 25 0 27 3 27 40 0 37 -2 40 -29 40
-27 0 -29 -2 -28 -40z"/>
<path d="M4133 2665 c-17 -19 -16 -35 2 -35 9 0 15 9 15 25 0 29 -1 29 -17 10z"/>
<path d="M2440 2666 c0 -2 7 -6 15 -10 8 -3 15 -1 15 4 0 6 -7 10 -15 10 -8 0
-15 -2 -15 -4z"/>
<path d="M2294 2469 c-3 -5 -10 -7 -15 -4 -5 3 -6 -1 -2 -10 4 -13 14 -15 39
-10 19 3 34 2 34 -2 0 -11 76 -10 87 1 4 5 -1 7 -13 4 -12 -3 -29 -1 -39 5
-29 16 -85 26 -91 16z"/>
<path d="M3690 2049 c0 -20 21 -49 35 -49 18 0 18 1 5 34 -9 25 -40 37 -40 15z"/>
<path d="M3901 2019 c-10 -18 -15 -19 -22 -8 -7 12 -9 12 -9 -1 0 -8 30 -43
67 -77 49 -46 75 -63 95 -63 15 0 28 5 28 10 0 6 -9 10 -20 10 -11 0 -23 7
-27 16 -3 8 -12 13 -20 10 -11 -4 -11 -1 -3 14 12 22 1 27 -18 8 -16 -16 -16
4 1 21 10 11 9 12 -1 6 -19 -10 -64 34 -56 57 7 24 2 23 -15 -3z"/>
<path d="M4100 1953 c0 -28 92 -113 122 -113 18 0 -54 80 -78 86 -13 3 -24 12
-24 20 0 8 -4 14 -10 14 -5 0 -10 -3 -10 -7z"/>
<path d="M3280 1750 c0 -5 18 -10 40 -10 22 0 40 5 40 10 0 6 -18 10 -40 10
-22 0 -40 -4 -40 -10z"/>
<path d="M3742 1743 c2 -12 11 -17 23 -15 28 5 32 12 15 22 -24 15 -42 11 -38
-7z"/>
<path d="M3890 1712 c0 -7 -5 -10 -11 -6 -7 4 -10 1 -7 -7 2 -8 23 -18 46 -23
38 -9 42 -13 43 -40 1 -24 2 -27 7 -11 4 11 16 21 26 23 17 3 18 -1 13 -40
l-5 -43 11 38 c6 20 14 37 19 37 4 0 8 6 8 14 0 8 -8 15 -17 15 -34 -1 -108
25 -120 40 -9 12 -12 12 -13 3z"/>
<path d="M4055 1660 c3 -5 11 -10 16 -10 6 0 7 5 4 10 -3 6 -11 10 -16 10 -6
0 -7 -4 -4 -10z"/>
<path d="M2475 1600 c3 -5 8 -10 11 -10 2 0 4 5 4 10 0 6 -5 10 -11 10 -5 0
-7 -4 -4 -10z"/>
<path d="M4128 1593 c6 -2 18 -2 25 0 6 3 1 5 -13 5 -14 0 -19 -2 -12 -5z"/>
<path d="M2480 1562 c0 -15 6 -20 25 -18 14 0 25 7 25 14 0 7 -5 10 -10 7 -6
-4 -17 -1 -25 5 -12 10 -15 9 -15 -8z"/>
<path d="M2545 1550 c3 -5 8 -10 11 -10 2 0 4 5 4 10 0 6 -5 10 -11 10 -5 0
-7 -4 -4 -10z"/>
<path d="M2480 1496 c0 -13 -3 -33 -6 -43 -4 -14 -4 -15 4 -3 15 25 23 70 12
70 -5 0 -10 -11 -10 -24z"/>
<path d="M2541 1424 c0 -11 3 -14 6 -6 3 7 2 16 -1 19 -3 4 -6 -2 -5 -13z"/>
<path d="M2500 1410 c0 -8 5 -22 10 -30 9 -13 10 -13 10 0 0 8 -5 22 -10 30
-9 13 -10 13 -10 0z"/>
<path d="M2511 1333 c-1 -6 -4 -19 -8 -29 -4 -12 -3 -15 5 -10 7 4 12 2 12 -5
0 -7 2 -10 5 -8 2 3 0 18 -4 35 -5 16 -10 24 -10 17z"/>
<path d="M2451 1304 c0 -11 3 -14 6 -6 3 7 2 16 -1 19 -3 4 -6 -2 -5 -13z"/>
<path d="M3454 924 c3 -9 6 -18 6 -20 0 -2 16 -4 36 -4 21 0 33 4 29 10 -3 6
-15 10 -26 10 -10 0 -19 5 -19 10 0 6 -7 10 -16 10 -11 0 -14 -5 -10 -16z"/>
<path d="M3602 900 c0 -14 2 -19 5 -12 2 6 2 18 0 25 -3 6 -5 1 -5 -13z"/>
<path d="M3630 812 c0 -5 6 -17 14 -27 13 -18 14 -18 9 8 -5 24 -23 39 -23 19z"/>
<path d="M3676 743 c9 -50 19 -59 11 -11 -4 24 -1 39 6 42 7 2 4 5 -6 5 -15 1
-17 -4 -11 -36z"/>
<path d="M3747 749 c-4 -16 -3 -18 9 -8 16 13 19 29 5 29 -5 0 -11 -9 -14 -21z"/>
<path d="M3866 604 c-8 -21 -8 -20 10 -38 21 -22 41 -20 49 5 11 34 -46 67
-59 33z"/>
</g>
</svg>
